<?xml version="1.0" standalone="no"?>
<!DOCTYPE svg PUBLIC "-//W3C//DTD SVG 20010904//EN"
 "http://www.w3.org/TR/2001/REC-SVG-20010904/DTD/svg10.dtd">
<svg version="1.0" xmlns="http://www.w3.org/2000/svg"
 width="500.000000pt" height="500.000000pt" viewBox="0 0 500.000000 500.000000"
 preserveAspectRatio="xMidYMid meet">

<g transform="translate(0.000000,500.000000) scale(0.100000,-0.100000)"
fill="#000000" stroke="none">
<path d="M3280 3683 c0 -9 -120 -73 -138 -73 -12 0 -37 -10 -137 -56 -33 -15
-67 -29 -75 -30 -8 -2 -22 -13 -30 -25 -22 -34 -105 -138 -153 -193 -40 -47
-65 -85 -37 -59 7 6 19 9 26 6 8 -3 14 0 14 6 0 7 6 11 13 10 14 -2 41 6 80
27 16 7 41 14 57 14 16 0 32 5 35 10 3 6 14 10 24 10 9 0 39 14 65 30 26 17
45 26 41 20 -3 -5 -1 -10 4 -10 6 0 11 5 11 11 0 5 4 8 8 5 15 -9 187 194 237
279 10 18 11 23 2 12 -14 -16 -16 -16 -31 -2 -9 9 -16 13 -16 8z"/>
<path d="M3088 3259 l-148 -149 0 -65 c0 -36 4 -65 9 -65 25 0 168 179 234
295 39 68 68 137 56 134 -2 -1 -70 -68 -151 -150z"/>
<path d="M2790 3007 c-36 -24 -99 -63 -140 -86 -41 -23 -81 -48 -88 -55 -10
-9 -11 -45 -6 -154 l7 -142 45 5 c51 6 65 12 57 26 -4 5 3 9 14 9 16 0 21 6
21 25 0 16 6 25 15 25 9 0 15 9 15 24 0 14 10 32 22 40 12 9 23 25 25 37 2 13
8 28 13 34 5 7 7 15 3 18 -3 4 -1 7 6 7 7 0 11 6 9 12 -3 7 5 17 16 23 24 12
38 69 34 143 l-3 52 -65 -43z"/>
<path d="M2257 2844 c3 -9 9 -11 12 -6 3 5 13 12 21 15 9 3 4 6 -12 6 -21 1
-26 -3 -21 -15z"/>
<path d="M2186 2842 c-3 -5 -18 -9 -33 -8 -15 1 -34 -6 -41 -14 -8 -8 -11 -9
-7 -2 10 19 -23 14 -34 -5 -6 -10 -11 -13 -11 -7 0 8 -25 4 -72 -11 -40 -13
-82 -25 -93 -28 -13 -3 -9 -5 12 -6 65 -2 352 63 338 77 -10 10 -53 13 -59 4z"/>
<path d="M2325 2778 c-188 -62 -168 -45 -160 -141 4 -45 12 -85 18 -89 16 -10
249 -10 243 1 -3 5 2 8 11 7 12 -1 18 7 19 24 14 199 14 240 2 239 -7 -1 -67
-19 -133 -41z"/>
<path d="M1905 2688 c-55 -6 -106 -11 -112 -14 -16 -4 -17 -87 -3 -115 10 -17
22 -19 135 -19 151 0 155 3 155 96 l0 64 -37 -2 c-21 0 -83 -5 -138 -10z"/>
<path d="M1250 2045 l0 -255 154 0 154 0 5 27 c6 33 -8 75 -25 72 -7 -1 -46
-1 -85 0 l-73 1 0 55 0 55 80 0 80 0 0 50 0 50 -80 0 -80 0 0 50 0 50 90 0
c50 0 90 3 91 8 0 4 2 16 4 27 2 11 2 30 -2 43 -5 22 -8 22 -159 22 l-154 0 0
-255z"/>
<path d="M3253 2283 c-8 -3 -13 -24 -13 -53 0 -46 -2 -49 -27 -52 -25 -3 -28
-7 -31 -45 -3 -42 -2 -43 27 -43 l29 0 4 -126 3 -126 33 -29 c30 -27 39 -30
95 -27 l62 3 0 35 c0 33 -2 35 -35 38 -56 6 -60 14 -60 128 l0 104 46 0 45 0
-3 43 c-3 44 1 42 -70 46 -15 1 -18 10 -18 51 0 28 -3 51 -7 51 -36 5 -70 6
-80 2z"/>
<path d="M2168 2159 c-32 -16 -38 -17 -38 -4 0 11 -12 15 -50 15 l-50 0 0
-274 c0 -303 -4 -286 66 -286 l34 0 0 100 c0 55 3 100 8 100 4 0 15 -7 26 -15
27 -21 96 -28 144 -16 86 24 142 100 142 196 0 153 -153 253 -282 184z m145
-90 c60 -47 56 -151 -7 -190 -77 -47 -176 7 -176 96 0 91 114 149 183 94z"/>
<path d="M2585 2157 c-21 -12 -53 -42 -70 -65 -27 -39 -30 -52 -30 -115 0 -84
24 -133 84 -172 74 -49 188 -41 257 19 45 39 41 62 -10 71 -27 6 -39 3 -56
-13 -30 -28 -66 -35 -106 -22 -31 11 -74 52 -74 71 0 5 68 9 150 9 172 0 171
-1 151 83 -23 100 -95 157 -201 157 -39 0 -67 -7 -95 -23z m149 -72 c30 -14
62 -52 53 -61 -2 -3 -50 -3 -107 -2 l-102 3 22 28 c37 47 80 57 134 32z"/>
<path d="M3090 2169 c-14 -6 -35 -20 -47 -31 l-23 -21 0 26 c0 25 -3 27 -45
27 l-45 0 0 -195 0 -195 44 0 44 0 4 114 c4 133 17 161 87 186 41 14 42 16 39
55 -3 43 -16 51 -58 34z"/>
<path d="M1622 2155 c2 -8 28 -46 58 -85 l55 -71 27 33 c35 42 35 55 -3 101
-28 35 -34 37 -85 37 -44 0 -55 -3 -52 -15z"/>
<path d="M3474 2156 c-3 -8 -4 -25 -2 -38 3 -22 8 -23 97 -28 l94 -5 -97 -119
c-82 -101 -97 -124 -94 -150 l3 -31 163 -3 162 -2 0 40 0 40 -95 0 c-52 0 -95
3 -95 8 0 4 38 54 85 110 89 108 103 129 99 150 -1 6 -2 19 -3 27 -2 22 -309
22 -317 1z"/>
<path d="M1785 1930 c-33 -26 -63 -46 -67 -43 -5 2 -8 -1 -8 -7 0 -6 -4 -8
-10 -5 -5 3 -10 1 -10 -4 0 -6 -3 -10 -7 -8 -5 1 -10 -2 -12 -8 -3 -5 -15 -18
-28 -28 -39 -31 -30 -47 27 -47 48 0 50 1 91 55 23 30 43 55 44 55 1 0 21 -25
44 -55 42 -55 42 -55 96 -55 30 0 55 2 55 5 0 10 -140 195 -148 194 -4 0 -34
-22 -67 -49z"/>
<path d="M1701 1907 c-13 -21 -12 -21 5 -5 10 10 16 20 13 22 -3 3 -11 -5 -18
-17z"/>
<path d="M1365 1715 c-5 -2 -22 -6 -37 -9 -34 -8 -94 -59 -114 -97 -7 -15 -14
-53 -14 -84 0 -179 200 -261 333 -137 35 33 34 57 -1 71 -26 11 -32 9 -61 -18
-27 -25 -42 -31 -78 -31 -38 0 -50 5 -79 34 -26 26 -34 42 -34 70 0 52 23 90
65 110 45 22 85 14 130 -26 33 -28 35 -29 65 -13 24 12 28 19 21 33 -12 22
-60 67 -86 80 -23 11 -95 23 -110 17z"/>
<path d="M2613 1710 c-124 -29 -183 -192 -108 -299 54 -78 168 -105 255 -61
50 25 80 67 59 81 -33 21 -60 21 -83 0 -31 -29 -77 -36 -114 -17 -34 17 -64
54 -56 68 3 4 68 8 145 8 l139 0 0 40 c0 83 -58 160 -135 179 -49 12 -56 12
-102 1z m125 -105 c12 -14 22 -30 22 -36 0 -5 -42 -9 -95 -9 -72 0 -95 3 -95
13 0 15 36 51 60 60 30 12 85 -2 108 -28z"/>
<path d="M3006 1706 c-78 -29 -129 -100 -129 -181 0 -63 30 -124 79 -162 30
-22 49 -28 104 -31 75 -5 107 7 155 58 25 26 27 33 15 41 -30 19 -61 21 -78 6
-48 -44 -113 -44 -156 0 -48 48 -39 52 117 55 137 3 142 4 145 25 9 59 -40
148 -97 177 -42 22 -112 28 -155 12z m113 -81 c26 -13 41 -33 41 -56 0 -5 -43
-9 -95 -9 -52 0 -95 3 -95 6 0 16 24 45 48 58 35 19 66 20 101 1z"/>
<path d="M3601 1706 c-53 -13 -85 -51 -85 -101 0 -57 30 -86 120 -115 71 -22
79 -28 79 -50 0 -44 -80 -54 -119 -14 -11 11 -25 14 -47 9 -44 -10 -47 -32
-10 -68 28 -29 38 -32 103 -35 64 -3 77 -1 108 20 103 70 66 178 -72 208 -59
12 -78 25 -78 50 0 35 64 41 105 9 26 -21 28 -21 61 -5 30 14 33 19 24 35 -26
49 -115 76 -189 57z"/>
<path d="M2275 1698 c-3 -8 -4 -92 -3 -188 l3 -175 35 0 35 0 5 110 c3 64 11
120 18 133 7 13 34 32 58 43 42 17 45 21 42 51 -4 43 -31 47 -80 14 l-37 -25
-3 22 c-2 17 -11 23 -36 25 -20 2 -34 -2 -37 -10z"/>
<path d="M3302 1702 c-9 -6 -12 -51 -10 -188 l3 -179 40 0 40 0 5 116 c6 130
14 149 76 169 31 11 34 15 34 51 0 35 -3 39 -24 39 -14 0 -38 -11 -55 -25
l-30 -26 -3 23 c-2 17 -10 24 -33 26 -16 1 -36 -2 -43 -6z"/>
<path d="M1724 1548 c-42 -45 -164 -196 -164 -203 0 -3 22 -5 48 -5 l49 0 57
77 c31 43 54 83 51 91 -2 7 -1 11 4 8 11 -7 20 14 14 32 -4 10 -8 10 -20 1
-11 -10 -14 -10 -11 2 2 8 10 17 18 21 13 6 13 7 -1 7 -8 1 -29 -14 -45 -31z"/>
<path d="M1787 1445 c-43 -52 -75 -99 -72 -105 10 -17 74 -11 93 8 10 10 30
34 46 55 16 20 34 37 41 37 7 0 30 -23 50 -50 38 -52 67 -67 111 -56 18 5 23
11 17 19 -5 7 -40 51 -79 99 -95 120 -102 120 -207 -7z"/>
<path d="M3030 1105 c0 -9 5 -15 11 -13 6 2 11 8 11 13 0 5 -5 11 -11 13 -6 2
-11 -4 -11 -13z"/>
<path d="M1390 1093 c1 -5 7 -19 15 -33 8 -14 14 -35 15 -47 0 -14 6 -23 15
-23 8 0 15 9 15 20 0 12 7 35 16 51 19 38 9 52 -15 20 l-19 -24 -6 21 c-7 20
-36 32 -36 15z"/>
<path d="M1840 1045 c0 -30 5 -55 10 -55 6 0 10 15 10 33 l1 32 27 -33 c40
-47 52 -42 52 23 0 42 -3 55 -15 55 -10 0 -15 -10 -15 -32 l0 -33 -21 33 c-32
50 -49 42 -49 -23z"/>
<path d="M2167 1087 c-2 -7 -2 -30 2 -52 5 -33 11 -41 31 -43 20 -3 23 -1 13
9 -15 16 -17 59 -3 59 6 0 5 8 -2 20 -14 23 -34 26 -41 7z"/>
<path d="M2277 1094 c-16 -16 -6 -45 18 -54 34 -13 33 -32 -1 -24 -20 5 -25 3
-22 -7 3 -8 19 -14 39 -14 28 0 35 4 37 22 2 16 -4 26 -22 35 -34 15 -34 32 0
24 19 -5 25 -3 22 6 -5 14 -59 23 -71 12z"/>
<path d="M2376 1083 c-3 -10 -2 -34 2 -53 6 -27 13 -36 32 -38 21 -3 22 -2 11
12 -8 9 -11 28 -8 43 3 15 3 33 0 40 -7 19 -31 16 -37 -4z"/>
<path d="M2700 1044 l0 -55 43 3 42 3 -2 45 c-1 25 -2 48 -2 53 -1 4 -19 7
-41 7 l-40 0 0 -56z m60 26 c0 -5 -9 -10 -20 -10 -11 0 -20 5 -20 10 0 6 9 10
20 10 11 0 20 -4 20 -10z m-5 -41 c10 -15 -1 -23 -20 -15 -9 3 -13 10 -10 16
8 13 22 13 30 -1z"/>
<path d="M3230 1045 c0 -54 15 -77 22 -32 2 14 11 23 26 25 18 3 22 -1 22 -22
0 -16 6 -26 15 -26 12 0 15 13 15 55 0 42 -3 55 -15 55 -8 0 -15 -9 -15 -20 0
-15 -7 -20 -25 -20 -18 0 -25 5 -25 20 0 11 -4 20 -10 20 -5 0 -10 -25 -10
-55z"/>
<path d="M1512 1068 c-7 -7 -12 -21 -12 -33 0 -12 5 -26 12 -33 7 -7 21 -12
33 -12 12 0 26 5 33 12 7 7 12 21 12 33 0 12 -5 26 -12 33 -7 7 -21 12 -33 12
-12 0 -26 -5 -33 -12z m48 -39 c0 -22 -25 -26 -33 -5 -6 16 12 38 25 30 4 -3
8 -14 8 -25z"/>
<path d="M1612 1038 c3 -43 3 -43 46 -46 l42 -3 0 46 c0 54 -23 59 -28 7 -5
-46 -32 -43 -32 3 0 25 -4 35 -16 35 -12 0 -14 -9 -12 -42z"/>
<path d="M1730 1034 c0 -24 5 -44 10 -44 6 0 10 11 10 25 0 14 7 28 15 31 24
10 17 29 -10 30 -23 2 -25 -1 -25 -42z"/>
<path d="M1972 1068 c-7 -7 -12 -25 -12 -40 0 -21 6 -29 25 -34 29 -7 55 0 55
16 0 6 -10 8 -25 4 -15 -4 -25 -2 -25 5 0 6 14 11 30 11 33 0 35 3 20 31 -12
21 -50 25 -68 7z m43 -18 c3 -5 -1 -10 -9 -10 -9 0 -16 5 -16 10 0 6 4 10 9
10 6 0 13 -4 16 -10z"/>
<path d="M2071 1059 c8 -16 8 -28 0 -45 -12 -27 5 -34 27 -12 9 9 12 9 12 0 0
-7 10 -12 22 -12 20 0 20 1 4 19 -14 16 -15 23 -6 41 14 26 6 38 -14 21 -10
-8 -16 -9 -21 -1 -3 5 -13 10 -21 10 -12 0 -13 -4 -3 -21z"/>
<path d="M2452 1068 c-16 -16 -15 -53 2 -68 18 -14 58 -10 64 8 3 9 -3 11 -22
6 -16 -4 -26 -2 -26 5 0 6 14 11 30 11 18 0 30 5 30 13 0 19 -21 37 -45 37
-12 0 -26 -5 -33 -12z m48 -18 c0 -5 -7 -10 -15 -10 -8 0 -15 5 -15 10 0 6 7
10 15 10 8 0 15 -4 15 -10z"/>
<path d="M2550 1008 c0 -39 4 -68 10 -68 6 0 10 11 10 24 0 21 6 25 33 28 27
2 33 8 35 31 5 38 -13 57 -54 55 l-34 -1 0 -69z m63 16 c-3 -8 -11 -14 -18
-14 -18 0 -26 25 -12 39 14 14 38 -5 30 -25z"/>
<path d="M2816 1064 c-19 -19 -20 -35 -3 -58 15 -21 68 -19 75 3 3 10 -2 12
-22 7 -15 -4 -26 -2 -26 4 0 5 14 10 30 10 17 0 30 4 30 9 0 16 -31 41 -50 41
-10 0 -26 -7 -34 -16z m44 -14 c0 -5 -4 -10 -10 -10 -5 0 -10 5 -10 10 0 6 5
10 10 10 6 0 10 -4 10 -10z"/>
<path d="M2921 1067 c-27 -27 -8 -77 30 -77 16 0 29 -5 29 -11 0 -7 -11 -9
-30 -5 -22 4 -30 2 -30 -8 0 -8 7 -17 16 -20 49 -19 74 8 74 79 l0 53 -39 0
c-21 0 -43 -4 -50 -11z m56 -23 c8 -21 -13 -42 -28 -27 -13 13 -5 43 11 43 6
0 13 -7 17 -16z"/>
<path d="M3030 1036 c0 -35 4 -46 16 -46 12 0 14 9 12 42 -4 59 -28 63 -28 4z"/>
<path d="M3080 1034 c0 -51 16 -58 27 -13 11 41 27 42 31 2 4 -46 32 -45 32 1
0 40 -14 53 -57 54 -32 1 -33 0 -33 -44z"/>
<path d="M3361 1066 c-7 -8 -11 -27 -9 -43 3 -25 7 -28 37 -28 19 0 36 6 39
13 3 9 -3 11 -22 6 -16 -4 -26 -2 -26 5 0 6 14 11 30 11 33 0 35 3 20 31 -13
22 -52 25 -69 5z m44 -16 c3 -5 -1 -10 -9 -10 -9 0 -16 5 -16 10 0 6 4 10 9
10 6 0 13 -4 16 -10z"/>
<path d="M3460 1034 c0 -24 5 -44 10 -44 6 0 10 11 10 25 0 14 7 28 15 31 24
10 17 29 -10 30 -23 2 -25 -1 -25 -42z"/>
<path d="M3536 1064 c-19 -18 -20 -28 -6 -55 13 -22 70 -27 70 -5 0 9 -8 12
-26 8 -19 -3 -25 -1 -20 7 4 6 18 11 32 11 26 0 32 18 12 38 -17 17 -44 15
-62 -4z m44 -14 c0 -5 -4 -10 -10 -10 -5 0 -10 5 -10 10 0 6 5 10 10 10 6 0
10 -4 10 -10z"/>
</g>
</svg>
